<svg xmlns="http://www.w3.org/2000/svg" width="960" height="520" viewBox="0 0 960 520">
  <rect x="0" y="0" width="960" height="520" rx="24" fill="#fff6ef" stroke="#eadfd4"/>
  <g transform="translate(24,24)">
    <text x="0" y="0" font-family="sans-serif" font-size="18" fill="#6b5e55">Car Park</text>
    <g id="car-bays" transform="translate(0,24)">
      <rect x="0" y="0" width="160" height="80" rx="12" fill="#ffffff" stroke="#5e564f" stroke-width="2"/>
      <rect x="184" y="0" width="160" height="80" rx="12" fill="#ffffff" stroke="#5e564f" stroke-width="2"/>
      <rect x="368" y="0" width="160" height="80" rx="12" fill="#ffffff" stroke="#5e564f" stroke-width="2"/>
      <rect x="552" y="0" width="160" height="80" rx="12" fill="#ffffff" stroke="#5e564f" stroke-width="2"/>
      <rect x="736" y="0" width="160" height="80" rx="12" fill="#ffffff" stroke="#5e564f" stroke-width="2"/>
    </g>
  </g>
  <g transform="translate(24,170)">
    <text x="0" y="0" font-family="sans-serif" font-size="18" fill="#6b5e55">Desks</text>
    <g id="desks" transform="translate(0,24)">
      <rect x="0" y="0" width="96" height="72" rx="12" fill="#ffffff" stroke="#5e564f" stroke-width="2"/>
      <rect x="104" y="0" width="96" height="72" rx="12" fill="#ffffff" stroke="#5e564f" stroke-width="2"/>
      <rect x="208" y="0" width="96" height="72" rx="12" fill="#ffffff" stroke="#5e564f" stroke-width="2"/>
      <rect x="312" y="0" width="96" height="72" rx="12" fill="#ffffff" stroke="#5e564f" stroke-width="2"/>
      <rect x="416" y="0" width="96" height="72" rx="12" fill="#ffffff" stroke="#5e564f" stroke-width="2"/>
      <rect x="520" y="0" width="96" height="72" rx="12" fill="#ffffff" stroke="#5e564f" stroke-width="2"/>
      <rect x="624" y="0" width="96" height="72" rx="12" fill="#ffffff" stroke="#5e564f" stroke-width="2"/>
      <rect x="728" y="0" width="96" height="72" rx="12" fill="#ffffff" stroke="#5e564f" stroke-width="2"/>
      <rect x="832" y="0" width="96" height="72" rx="12" fill="#ffffff" stroke="#5e564f" stroke-width="2"/>
    </g>
  </g>
</svg>
